<?xml version="1.0" encoding="utf-8"?>
<!-- Generator: Adobe Illustrator 17.1.0, SVG Export Plug-In . SVG Version: 6.00 Build 0)  -->
<!DOCTYPE svg PUBLIC "-//W3C//DTD SVG 1.1//EN" "http://www.w3.org/Graphics/SVG/1.1/DTD/svg11.dtd">
<svg version="1.1" id="Layer_1" xmlns="http://www.w3.org/2000/svg" xmlns:xlink="http://www.w3.org/1999/xlink" x="0px" y="0px"
	 viewBox="0 0 595.2800293 841.8900146" enable-background="new 0 0 595.2800293 841.8900146" xml:space="preserve">
<g>
	
		<rect x="185.5568848" y="322.8201904" fill-rule="evenodd" clip-rule="evenodd" fill="#FFCA00" width="161.003891" height="161.0063934"/>
	<g>
		<path fill="#FFFFFF" d="M426.6080933,507.7898865c-4.3875122-2.2738953-8.167511-0.3399963-7.0460815-10.5440979
			c0.8033752-7.3103027-3.3147278-12.9635925-8.8892212-16.6505737c-5.9035034-3.905304-13.3244019-4.7664185-19.8182983-7.3118286
			c-1.0488892-0.4110718-2.0885925-0.8595886-3.1244812-1.3253784c-4.7869263-2.1538086-9.7915344-5.3514099-13.5674133-9.0186157
			c-0.023407-0.0227051-0.0479126-0.0444031-0.071106-0.0670776c-1.1188049-1.0906067-2.1835022-2.2442017-3.2398987-3.4365234
			c-0.7167969-11.4015808,3.0697937-23.2384949,3.5036011-32.8744812c0.1546021-3.4265137-0.1134949-6.9259949-0.6510925-10.3105164
			c-1.1023254-6.9385071-6.0281067-15.1651001-1.2229004-21.5559082c0.5592957-0.7443848,1.1889954-1.245575,2.0228882-2.0424805
			c2.5501099-2.4363098,4.9637146-5.5584106,5.3604126-9.1694031c0.0927734-0.8429871,0.0805969-1.5292969,0.1298828-2.0227051
			c0.6849976-0.7698059,1.0913086-1.9487915,0.9642944-2.9641113c-0.0636902-0.5078735-0.2606812-0.9743958-0.6228027-1.3286743
			c-0.3619995-0.3542175-0.8895874-0.5959167-1.6141968-0.6533203c0.0674133,0.199707,0.1150208,0.4089966,0.1335144,0.6262207
			c0.0187988,0.2172852,0.008606,0.4421997-0.0388184,0.6730957c-0.0709839,0.3461914-0.226593,0.7055969-0.4953613,1.071106
			c-0.0896301,0.1221008-0.1916199,0.2445984-0.3076172,0.3676758c0.0243835-0.1276855,0.0346985-0.2529907,0.0325012-0.3759766
			c-0.0020142-0.1228027-0.0164185-0.2437134-0.0420227-0.3618164c-0.0761719-0.3543091-0.2501831-0.6856079-0.4799805-0.9902954
			c-0.2202148-0.2919922-0.4927063-0.5582886-0.7781067-0.7970886c-0.0123901-0.0102234-0.0238953-0.0215149-0.0362854-0.0315247
			c-1.1319275,0.1841125-2.2666016,0.251709-3.5281067,0.2293091c-0.758606-0.0134888-1.5625-0.059082-2.4395142-0.131897
			c-1.7516785-0.1445007-3.7944031-0.3959961-6.3426819-0.7070007c-4.3347168-0.5295105-8.7444153-0.8616028-13.032196,0.1716003
			c-6.0859985,1.466095-10.9043274,5.5838013-12.9380188,11.5960083c-1.4726868,4.3522949-1.7570801,8.9596863-2.7328796,13.4249878
			c-0.5974121,2.7339172-2.7927246,6.6564941-7.48172,12.321991c-4.8053894,0.9277039-10.4889832,0.0864258-12.092804-0.164978
			c-0.5345764-0.0840149-1.0614929-0.1844177-1.571991-0.3023071c-0.1618042,0.167511-0.3158875,0.3467102-0.4519043,0.5351868
			c-0.2718811,0.376709-0.4708862,0.7910156-0.5145874,1.2241211c-0.021698,0.2164917-0.0043945,0.4376831,0.0617065,0.6618958
			c-0.9916992-0.862793-1.0917053-1.7852173-0.8740234-2.5699158c0.0310059-0.1117859,0.0689087-0.2208862,0.1111145-0.3270874
			c-0.0576172-0.0198059-0.1195984-0.0361023-0.1763-0.0566101c-0.6154175-0.2219849-1.0978088-0.2460938-1.4663086-0.1269836
			c-0.368103,0.1195984-0.6222839,0.3825989-0.7814026,0.7355957c-0.0688782,0.1531067-0.1240845,0.3043823-0.1665955,0.4542847
			c-0.0422058,0.1497192-0.0722046,0.2979126-0.0904846,0.444397c-0.0362244,0.2932129-0.0259094,0.5798035,0.0228882,0.8589172
			c0.0242004,0.1395874,0.0581055,0.2772827,0.1007996,0.4132996c0.0632935,0.2029114,0.1511841,0.3999023,0.2492981,0.593689
			c0.074707,0.1473083,0.157196,0.2922974,0.248291,0.4341125c0.0513,0.0791016,0.1029968,0.1576843,0.1582031,0.2351074
			c0.6768188,0.9474792,2.0554199,2.8959961,6.2763977,4.6703796c-1.2321777,0.2180176-3.7521973-0.1920776-6.5793762-2.5738831
			c-3.4436035,4.6673889,5.5231934,10.118103,8.7003784,12.507782c0.2806091,5.1706238-3.0332031,9.3399963-5.7013855,11.7402039
			c-4.7756042,4.2958984-10.9570007,7.2400208-16.2474976,10.8580933
			c-6.9944153,4.783905-13.3923035,10.0837097-18.2030945,17.1318054c-0.8494263,1.2444153-1.5559082,2.5476074-2.1287231,3.8901978
			c-1.7182007,4.0280151-2.232605,8.4132996-1.7877808,12.6435242c0.5802917,5.5197754,2.0983887,11.8183899-3.710022,15.1976929
			c-2.2657776,1.3182068-14.8263855,4.5650024-18.3429871,14.059082c8.7912903-4.7467651,13.9321899-1.7977905,20.5712891-3.1644897
			c5.9779968-1.2307739,9.3186035-5.6263123,8.8950195-10.5492859c0.3728027,5.2731018,2.6358032,10.1777039,7.8183899,12.1957092
			c2.7208862,1.0593872,5.7065125,1.2956543,8.5953979,1.0131836c2.6029968-0.255127,5.2488098-1.3820801,7.8847961-0.8942871
			c5.5907898,1.0344849,10.8708191,2.5222778,16.493103,1.0109863c1.7698059-0.4758301,3.2957153-0.9415894,4.7415161-1.4494019
			c2.5531921,0.8898926,5.0897827,1.6188965,7.5504761,2.1682129c3.8193054,0.8522949,7.5722961,1.3048706,11.1557007,1.3441772
			c4.3770142,0.0479126,8.511322-0.5106812,12.2888184-1.6588745c1.8137817-0.5513306,3.517395-1.2630005,5.1362915-2.0645142
			c2.1791992,0.4417114,4.3937988,0.7041016,6.6117859,0.8391113c0.065918,0.0039063,0.1565247,0.0065918,0.2680054,0.0078125
			c0.2734985,0.0031738,0.6809998-0.005127,1.1499023-0.0246582c1.0428162,0.4648438,2.3540039,0.9919434,3.7565918,1.0073242
			c1.6016235,0.0175781,2.9500122-0.6395874,3.9038086-1.9022827c0.8680115-1.1531372,1.0654907-2.5449219,0.5458984-3.8111267
			c-0.1273804-0.3119812-0.2955933-0.6112976-0.5053101-0.8961792c-0.0334778-0.6636047-0.153595-1.3062134-0.3952942-1.9077148
			c5.7882996,0.8152161,11.8215027-0.0567017,16.3174133-1.1984863c-1.9505005,5.1880188-9.2471008,6.9167175-14.1694946,5.9797058
			c4.050293,3.8190918,9.9972839,4.5036621,15.2312012,3.2207031c2.9094849-0.7131348,5.6637878-2.0324097,7.9845886-3.9318237
			c1.8977051-1.5538025,3.7278137-3.8674927,6.4898071-3.0820923c1.6308899,0.4638977,2.363678,1.8891907,3.4851074,3.0048828
			c1.3720093,1.3652344,3.0441895,2.3633423,4.8739929,2.9854126c5.1408997,1.7478027,10.1976929-0.7033691,15.6481934,1.7597046
			C433.8248901,512.9003296,430.9954834,510.0640869,426.6080933,507.7898865z"/>
		<g>
			<path d="M334.7456055,472.9103088c-1.1723022-0.9301147-2.1235046-0.5869141-2.1235046-0.5869141
				c-0.1199036,0.5368958,0.6784973,1.5043945,1.25,2.9847107c0.5712891,1.4801941,1.7638855,2.1972046,2.0995789,0.6940002
				C336.3074036,474.4989929,335.4776001,473.491394,334.7456055,472.9103088z"/>
			<path d="M323.7685852,471.4725952c0.0325012-0.0184937,0.0620117-0.0365906,0.0950012-0.0552063
				c0.6357117-0.3575745,1.2729187-0.4935913,1.7278137-0.5890808c0.4628906-0.0967102,0.7367859-0.1509094,0.6239929-0.3513184
				c-0.0823059-0.1459961-0.3407898-0.2963867-0.6965027-0.3930969v-0.0001831
				c-0.5010071-0.1362-1.196106-0.1616211-1.8776855,0.0839844c-0.1497192,0.053894-0.2989197,0.1166992-0.4449158,0.1987
				c-1.2824097,0.7211914-1.9519043,1.7319031-1.7286987,2.1292114
				C321.6853943,472.8825073,322.539093,472.1762085,323.7685852,471.4725952z"/>
			<path d="M330.1721802,475.5397034c-0.0287781-0.3208008-0.1279907-0.626709-0.3473816-0.9115906
				c0.6637878-0.0471191,1.1434937-0.2557983,1.2345886-0.6096191c0.1593933-0.6178894-0.9038086-1.4263-2.3744812-1.8059082
				c-1.4007263-0.3612976-2.6533203-0.1987-2.9090271,0.3503113c-0.0128784,0.0276184-0.0354004,0.0516052-0.0426941,0.0811157
				c-0.0402832,0.1552734,0.0068054,0.3224792,0.1112976,0.4916992c0.081604,0.1325989,0.1956177,0.2666016,0.3477173,0.3974915
				c-0.0066223,0.0018921-0.0133972,0.0039063-0.0202942,0.0057983c-0.0932007,0.0282898-0.1765137,0.0751953-0.2607117,0.1200867
				c-0.1516113,0.0811157-0.2947083,0.1768188-0.4234009,0.2964172c-0.3551941-0.0083008-0.8707886-0.001709-1.4243164,0.0539856
				c-0.8434753,0.0852051-1.7762756,0.2878113-2.372467,0.7539063c0.9823914-0.101593,1.8265686-0.0683899,2.4742737-0.0010071
				c0.2543945,0.0266113,0.4854126,0.0566101,0.6722107,0.0881042c-0.0314941,0.0632935-0.0577087,0.1302185-0.0867004,0.1953125
				c-0.1365051,0.0290833-0.3227844,0.0737915-0.5263977,0.1260071c-0.9458008,0.2436829-2.4545898,0.7477722-3.1351929,1.6225891
				c1.4349976-0.5230103,2.64328-0.6608887,3.2745972-0.6962891c0.0080872-0.0005188,0.0213013-0.0022278,0.0292969-0.0025024
				c-0.0063171,0.0242004-0.0117188,0.047699-0.0177917,0.0717773c-0.0187988,0.073822-0.0382996,0.1477051-0.0540161,0.2192993
				c-0.7149963,0.2863159-2.688385,1.1648254-3.3244019,2.3659058c1.3840027-0.7992859,2.5892944-1.1383972,3.1787109-1.269989
				c-0.0231934,0.7322083,0.139679,1.320282,0.4257813,1.7673035c-0.3959961,0.0812988-0.6923828,0.275177-0.7953796,0.5686035
				c-0.2109985,0.6020813,0.4650879,1.3871765,1.510498,1.7536926c0.0653992,0.0227051,0.126709,0.0243835,0.1915894,0.0429993
				c0.7987976,0.2284851,1.5282898,0.1340027,1.8828125-0.2192993l0,0c0.0776978-0.0773926,0.1647949-0.1494141,0.2005005-0.2507019
				c0.1015015-0.2900085-0.0064087-0.6213074-0.2583008-0.9290161c0.637207-0.1637878,1.2501831-0.5506897,1.7303772-1.1456909
				c0.3401184,0.3804016,1.1956177,1.4274902,1.887207,3.0513c0.2304993-1.4512024-1.0151062-3.539093-1.3194885-4.0221863
				c0.0310059-0.0765076,0.0572815-0.1570129,0.0846863-0.2373962c0.4370117,0.3520813,1.41922,1.2276001,2.3371277,2.6381836
				c-0.025116-1.4974976-1.671814-3.3764038-2.0149231-3.7514038c0.0112915-0.0440063,0.0220032-0.0881958,0.0320129-0.131897
				c0.5749817,0.2835083,1.6200867,0.8771973,2.7221985,1.8980103
				C332.4545898,477.2629089,330.8677063,476.0302124,330.1721802,475.5397034z"/>
			<path d="M426.6080933,507.7898865c-4.3875122-2.2738953-8.167511-0.3399963-7.0460815-10.5440979
				c0.8033752-7.3103027-3.3147278-12.9635925-8.8892212-16.6505737c-5.9035034-3.905304-13.3244019-4.7664185-19.8182983-7.3118286
				c-1.0488892-0.4110718-2.0885925-0.8595886-3.1244812-1.3253784c-4.7869263-2.1538086-9.7915344-5.3514099-13.5674133-9.0186157
				c-0.023407-0.0227051-0.0479126-0.0444031-0.071106-0.0670776c-1.1188049-1.0906067-2.1835022-2.2442017-3.2398987-3.4365234
				c-0.7167969-11.4015808,3.0697937-23.2384949,3.5036011-32.8744812
				c0.1546021-3.4265137-0.1134949-6.9259949-0.6510925-10.3105164c-1.1023254-6.9385071-6.0281067-15.1651001-1.2229004-21.5559082
				c0.5592957-0.7443848,1.1889954-1.245575,2.0228882-2.0424805c2.5501099-2.4363098,4.9637146-5.5584106,5.3604126-9.1694031
				c0.0927734-0.8429871,0.0805969-1.5292969,0.1298828-2.0227051c0.6849976-0.7698059,1.0913086-1.9487915,0.9642944-2.9641113
				c-0.0636902-0.5078735-0.2606812-0.9743958-0.6228027-1.3286743c-0.3619995-0.3542175-0.8895874-0.5959167-1.6141968-0.6533203
				c0.0674133,0.199707,0.1150208,0.4089966,0.1335144,0.6262207c0.0187988,0.2172852,0.008606,0.4421997-0.0388184,0.6730957
				c-0.0709839,0.3461914-0.226593,0.7055969-0.4953613,1.071106c-0.0896301,0.1221008-0.1916199,0.2445984-0.3076172,0.3676758
				c0.0243835-0.1276855,0.0348816-0.2529907,0.0325012-0.3759766c-0.0020142-0.1228027-0.0164185-0.2437134-0.0420227-0.3618164
				c-0.0761719-0.3543091-0.2501831-0.6856079-0.4799805-0.9902954c-0.2202148-0.2919922-0.4924011-0.5582886-0.7781067-0.7970886
				c-0.0123901-0.0102234-0.0238953-0.0215149-0.0361023-0.0315247c-1.1321106,0.1841125-2.2667847,0.251709-3.5282898,0.2293091
				c-0.758606-0.0134888-1.5623169-0.059082-2.4395142-0.131897c-1.7516785-0.1445007-3.7944031-0.3959961-6.3426819-0.7070007
				c-4.3347168-0.5295105-8.7444153-0.8616028-13.032196,0.1716003c-6.0859985,1.466095-10.9043274,5.5838013-12.9380188,11.5960083
				c-1.4726868,4.3522949-1.7570801,8.9596863-2.7328796,13.4249878c-0.5974121,2.7339172-2.7927246,6.6564941-7.48172,12.321991
				c-4.8053894,0.9277039-10.4889832,0.0864258-12.092804-0.164978c-0.5345764-0.0840149-1.0614929-0.1844177-1.571991-0.3023071
				c-0.1618042,0.167511-0.3158875,0.3467102-0.4519043,0.5351868c-0.2718811,0.376709-0.4708862,0.7910156-0.5144043,1.2241211
				c-0.0218811,0.2164917-0.0045776,0.4376831,0.0615234,0.6618958c-0.9916992-0.862793-1.0917053-1.7852173-0.8740234-2.5699158
				c0.0310059-0.1117859,0.0689087-0.2208862,0.1111145-0.3270874c-0.0576172-0.0198059-0.1195984-0.0361023-0.1763-0.0566101
				c-0.6152039-0.2219849-1.0978088-0.2460938-1.4663086-0.1269836c-0.368103,0.1195984-0.6222839,0.3825989-0.7814026,0.7355957
				c-0.0688782,0.1531067-0.1240845,0.3043823-0.1665955,0.4542847c-0.0422058,0.1497192-0.0722046,0.2979126-0.0904846,0.444397
				c-0.0362244,0.2932129-0.0259094,0.5798035,0.0228882,0.8589172c0.0242004,0.1395874,0.0581055,0.2772827,0.1007996,0.4132996
				c0.0632935,0.2029114,0.1511841,0.3999023,0.2492981,0.593689c0.074707,0.1473083,0.157196,0.2922974,0.248291,0.4341125
				c0.0513,0.0791016,0.1029968,0.1576843,0.1582031,0.2351074c0.6768188,0.9474792,2.0554199,2.8959961,6.2763977,4.6703796
				c-1.2321777,0.2180176-3.7521973-0.1920776-6.5793762-2.5738831c-3.4436035,4.6673889,5.5231934,10.118103,8.7003784,12.507782
				c0.2806091,5.1706238-3.0332031,9.3399963-5.7013855,11.7402039
				c-4.7756042,4.2958984-10.9570007,7.2400208-16.2473145,10.8580933
				c-6.9945984,4.783905-13.3924866,10.0837097-18.2032776,17.1318054
				c-0.8494263,1.2444153-1.5559082,2.5476074-2.1287231,3.8901978c-1.7182007,4.0280151-2.232605,8.4132996-1.7877808,12.6435242
				c0.5802917,5.5197754,2.0983887,11.8183899-3.710022,15.1976929c-2.2657776,1.3182068-14.8263855,4.5650024-18.3429871,14.059082
				c8.7912903-4.7467651,13.9321899-1.7977905,20.5712891-3.1644897c5.9779968-1.2307739,9.3186035-5.6263123,8.8950195-10.5492859
				c0.3728027,5.2731018,2.6358032,10.1777039,7.8183899,12.1957092c2.7208862,1.0593872,5.7065125,1.2956543,8.5953979,1.0131836
				c2.6029968-0.255127,5.2488098-1.3820801,7.8847961-0.8942871c5.5907898,1.0344849,10.8708191,2.5222778,16.493103,1.0109863
				c1.7698059-0.4758301,3.2957153-0.9415894,4.7415161-1.4494019c2.5531921,0.8898926,5.0897827,1.6188965,7.5504761,2.1682129
				c3.8193054,0.8522949,7.5722961,1.3048706,11.1557007,1.3441772c4.3770142,0.0479126,8.5115051-0.5106812,12.2888184-1.6588745
				c1.8137817-0.5513306,3.517395-1.2630005,5.1362915-2.0645142c2.1791992,0.4417114,4.3937988,0.7041016,6.6117859,0.8391113
				c0.065918,0.0039063,0.1565247,0.0065918,0.2680054,0.0078125c0.2734985,0.0031738,0.6809998-0.005127,1.1499023-0.0246582
				c1.0428162,0.4648438,2.3540039,0.9919434,3.7565918,1.0073242c1.6016235,0.0175781,2.9500122-0.6395874,3.9038086-1.9022827
				c0.8680115-1.1531372,1.0654907-2.5449219,0.5458984-3.8111267c-0.1273804-0.3119812-0.2955933-0.6112976-0.5053101-0.8961792
				c-0.0334778-0.6636047-0.153595-1.3062134-0.3952942-1.9077148c5.7882996,0.8152161,11.8215027-0.0567017,16.3174133-1.1984863
				c-1.9505005,5.1880188-9.2471008,6.9167175-14.1694946,5.9797058c4.050293,3.8190918,9.9972839,4.5036621,15.2312012,3.2207031
				c2.9094849-0.7131348,5.6637878-2.0324097,7.9845886-3.9318237c1.8980103-1.5538025,3.7278137-3.8674927,6.4898071-3.0820923
				c1.6308899,0.4638977,2.363678,1.8891907,3.4851074,3.0048828c1.3720093,1.3652344,3.0441895,2.3633423,4.8739929,2.9854126
				c5.1408997,1.7478027,10.1976929-0.7033691,15.6481934,1.7597046
				C433.8248901,512.9003296,430.9954834,510.0640869,426.6080933,507.7898865z M337.2988892,403.5396118
				c1.7543945-3.5570984,2.6487122-7.5591125,3.6277161-10.5457153c0.0956726-0.291687,0.2086792-0.5791016,0.3145752-0.8685913
				c1.5137024,0.5958862,3.4261169-0.4832153,4.3216248-2.4756165c0.7718811-1.7184753,0.5292969-3.5473938-0.4795227-4.4933777
				c3.5892944-4.5771179,8.7729187-7.6260071,15.0334167-6.939209c6.0556946,0.664093,8.9530945,0.7038879,15.8031921-0.3511047
				c-2.1813965,2.5371094-6.3027039,2.8318176-8.9898987,2.3972168c0.7215881,0.6071777,1.0602112,1.2763977,1.0602112,1.2763977
				s-2.2961121,5.4726868-8.2705078,2.2319031c2.5458984,0.6913757,4.6669922,0.9453735,6.765686-2.6494141
				c-2.560791-2.1879883-6.0473938-1.0285034-6.8166809,0.0846863c-1.0144043,1.4676208-2.4140015,1.9375-4.4360046,4.0472107
				c-2.021698,2.1098022-2.780304,6.1290894-2.780304,6.1290894s-0.8240051-1.5578918,0.5718079-5.1366882
				c-2.4507141,2.0846863-4.1104126,4.3392944-5.3778992,7.0827026c-1.6629028,3.5992126-2.3474121,13.1994934,2.4660034,21.7555847
				c-2.7915039-2.4610901-5.2636108-6.5209961-5.6045227-12.3070984
				c-3.1756897,8.4822083,4.3255005,16.9329224,7.7889099,24.0557251c3.4635925,7.1231995,4.4216003,11.0128784,5.7492065,14.156189
				c2.371582,5.6152039,4.0440063,8.6152039,7.1669922,12.6022949
				c-6.0242004-3.7233887-10.0483093-16.0708008-12.5853882-21.4762878
				c-0.1783142-0.3796997-0.3592224-0.7642212-0.5415039-1.1516113c-1.9446106-4.1380005-4.1006165-8.5234985-7.5036926-11.6748047
				c-0.5429077-0.5029907-1.1016235-0.9657898-1.6804199-1.3881836c-2.467804-1.8013-6.1304016-4.3395996-12.6945801-4.2224121
				C332.1120911,411.2756958,334.1342773,409.9567871,337.2988892,403.5396118z M362.3451843,381.9822083
				c0.1062012,0.4187012,0.3713989,0.6948853,0.7093201,0.8220825c-0.0499268,0.0349121-0.0895996,0.0808105-0.1429138,0.1118164
				c-0.7320862,0.427002-1.4491882,0.2877808-1.6003113-0.3110962c-0.151886-0.5988159,0.3188171-1.4304199,1.0515137-1.8579102
				c0.0454102-0.0263062,0.0884094-0.0314941,0.1337891-0.0534058
				C362.3153992,381.1202087,362.2426758,381.5769958,362.3451843,381.9822083z M294.4155884,488.6907959
				c-4.865509,1.998291-8.8215027,4.8506165-11.7970886,9.2647095c0.4562988-0.677002-2.9836121-9.2817078-3.1430054-10.7859192
				c-2-18.8976746,15.6618042-27.7848816,28.9887085-36.334198c9.3186035-5.9779968,13.186676-11.7799988,12.1891785-18.1197815
				c4.162323,4.0541992,6.2702026,9.6149902,5.2339172,17.3190002c-1.3062134,9.7089844-0.0166016,13.1083984-0.0166016,13.1083984
				s-7.267395,1.6408997-11.289093,12.5453796c-3.1784973,6.7415161-7.2602234,8.3772278-10.5129089,9.5200195
				c2.2855835-1.9341125,3.6923828-4.6591187,4.0466003-6.671814
				C303.7171021,483.5382996,299.7558899,486.4977112,294.4155884,488.6907959z M336.8381958,514.0546265
				c-1.9837036-0.423645-4.0505981-0.9663086-6.2157898-1.6721191c-0.2451172-0.079895-0.4837036-0.1486816-0.7310181-0.2324829
				c0.9085083-0.3688354,1.8302917-0.7685242,2.8153992-1.2241211c1.3409119-0.6201172,2.2929993-2.1748047,2.947113-3.884491
				c0.4920959-1.2854004,0.8114929-2.6487122,1.0014038-3.7799988c0.0588989-0.3511047,0.1059875-0.6782227,0.1405945-0.9729004
				c0.1059875-0.905304,0.1052856-1.5066223,0.0229797-1.4981079c-0.0592957,0.0058899-0.1886902,0.2839966-0.3788757,0.7355957
				c-0.151123,0.3587036-0.34552,0.8339844-0.5725098,1.3687134c-0.571991,1.3483887-1.3738098,3.093689-2.3576965,4.5184937
				c-0.7043152,1.0198059-1.4978027,1.8740845-2.3695984,2.2770996c-2.9500122,1.364502-4.4680176,2.4240723-7.4185181,3.3433228
				c-0.3277893,0.1019897-0.6590881,0.2035522-1.0262756,0.3024902c-3.5020142,0.9423828-5.4195251,0.8637085-8.0859985,0.1994019
				c-0.0510254-0.0126953-0.1036987-0.0267944-0.1555176-0.0400391c-0.2160034-0.0551758-0.4262085-0.105957-0.6539917-0.1682129
				c-1.0234985-0.2802734-1.8479004-0.4535522-2.5552063-0.5717773c-0.7033997-0.1171875-1.290802-0.1801758-1.841095-0.2391968
				c-0.7502136-0.0800781-1.4588928-0.1560059-2.3512878-0.3552856c-0.6142273-0.1373901-0.9880066-0.3598022-1.1106262-0.6621094
				c-0.1122742-0.2756042-0.0553894-0.6882019,0.1509094-1.219696c0.1889954-0.4861145,0.5014954-1.0703125,0.9541016-1.7637024
				c1.5224915-2.3320007,5.0080872-2.1853027,7.5333862-1.3500977c3.23172,1.0673828,5.2635193,0.2503052,6.4226074-1.1174011
				c0.1170044-0.1387024,0.2359009-0.2827148,0.3653259-0.427002c1.5184937-1.6931152,1.0839844-3.6705933,0.5951843-6.010498
				c-0.2549133-1.2192078-0.5193176-2.5375977-0.5349121-3.9667969c-0.0033875-0.3369141,0.0027161-0.6781921,0.0307312-1.0276184
				c-0.1257324-0.0533752-0.432312,0.3831177-0.7099304,1.1416016c-0.3262024,0.8907166-0.5966797,2.2434082-0.4931946,3.8742981
				c0.0087891,0.1382141,0.0050964,0.2678223,0.0195923,0.4099121l0.059021,0.5690918
				c0.2692871,2.5722961,0.2743835,2.6217957-0.846405,3.9023132c-0.1315918,0.1506958-0.2563171,0.2978821-0.3777161,0.4407043
				c-0.0368042,0.0437012-0.071991,0.0849915-0.1080933,0.1271973c-0.3868103-0.2727051-1.464386-1.1653137-2.4761047-3.1916199
				c-0.0099792-0.0795898-0.0336914-0.1584778-0.0795898-0.2304993c-0.0317078-0.0497742-0.0675964-0.0963745-0.1007996-0.1452942
				c-0.2032166-0.4389038-0.4002075-0.9303894-0.5874023-1.4692078c-0.3288879-0.9458008-0.6242981-2.048584-0.8505859-3.3397827
				c-0.1196289-0.683197-0.22052-1.4169922-0.2966003-2.206604c-0.2449036-2.5364075-0.2237244-4.9318848,0.0270996-7.2759094
				c0.4367065-4.0868835,1.6410828-8.0090027,3.7328796-12.1529846c0.0778198-0.1546021,0.1699219-0.3135071,0.2502136-0.468811
				c0.3345032-0.6455078,0.6632996-1.2887878,1.0402832-1.9476929c0.9692078-1.6936035,2.0552063-2.9020996,3.1789246-3.782196
				c0.5820923-0.4561157,1.1721802-0.8255005,1.7653809-1.1094055c0.6130981-0.2929993,1.2250977-0.5103149,1.8273926-0.653595
				c0.8621216-0.2051086,1.6982117-0.273407,2.4812012-0.2575073c1.8330078,0.0372925,3.3605957,0.5340881,4.1430969,0.8510132
				c4.7753296,1.9346008,7.0393066,5.8674927,5.9079285,10.2638855c-0.2802124,1.0884094-0.599823,2.1000977-0.9087219,3.0786133
				c-1.2893066,4.0864868-1.6398926,7.1359863,2.2897949,9.7529907c1.7051086,1.1336975,3.4487,1.494812,6.6226196,2.5875854
				C348.7272949,501.9993896,343.228302,510.9881897,336.8381958,514.0546265z M377.5596008,512.7496948
				c-0.1350098,0.1787109-0.2903137,0.3037109-0.4544067,0.4055176c-0.8970032,0.5548706-2.2128906,0.0548706-3.7987976-0.6660156
				c-0.2731934-0.1242676-0.5336914-0.2421875-0.7743835-0.3417969c-0.7024231-0.2903137-1.2886353-0.497406-1.8218079-0.6528931
				c-1.0603027-0.3088074-1.8933105-0.396698-2.8943176-0.4113159c0.6436157-0.4433899,0.9309082-1.0003052,1.0307922-1.4714966
				c0.0976257-0.4611816,0.0161133-0.8403015-0.0924988-0.9494019c-0.0220032-0.0222778-0.1806946,0.0861206-0.4624023,0.2828979
				c-0.7502747,0.5230103-2.4182739,1.6968079-4.9904785,2.8923035c-1.1035156,0.513031-2.3753052,1.0263977-3.8110962,1.4958801
				c-2.1613159,0.7062988-6.2799988,1.2839355-10.5546265,1.5869141c7.964325-2.3283691,12.7835999-9.8851929,14.7954102-12.1591797
				c3.3988953,0.3518066,5.5411987,3.1345825,6.4363098,3.7836914c1.0355835,0.7504883,2.1160889,1.1918945,4.2221069,1.5476074
				c2.2086792,0.3742981,2.5341797,0.8549805,2.5812988,1.8623047c-0.7898254-0.398407-2.6555176-0.7116089-3.5346985-0.2058105
				c2.0138855,0.1304016,3.9670715,1.5386047,4.2680969,2.2752075
				C377.7697754,512.1849976,377.8129883,512.4136963,377.5596008,512.7496948z M386.3439941,485.1290894
				c-4.2581177-0.2570801-6.9619141-1.536377-9.0786133-3.2095032c-1.734375-1.370575-3.0755005-3.0045776-4.5434875-4.5641785
				c-1.2578125-1.335907-3.2141113-2.2391968-4.2556152-0.2341003c-0.9120789,1.7561035-0.0641785,3.7572937,0.1016235,5.5782776
				c0.2892761,3.1746216-1.228302,6.2271118-2.9243164,8.8084106c-0.5126953,0.780304-1.3110962,2.096405-2.3454895,3.6928101
				c0.8092957-2.785614,1.5260925-6.1979065,1.7807922-10.0802917c-1.6918945,6.1706848-5.1296997,13.2404785-7.7951965,18.2162781
				c-3.7485046,4.3135071-8.4035034,8.2061157-13.4616089,8.7593384c4.3164063-4.7183228,5.8459167-9.8430176,6.5119324-13.8555298
				c-0.4431152-3.8916016-1.0068359-13.157196,2.6859741-19.1236877c-0.7341003,2.2162781-0.960907,5.0390015-0.9223022,7.8634949
				c0.2886047-1.0078125,0.6195984-2.0020142,1.0661011-2.9529114c1.4273071-3.0380859,3.9509888-4.9960938,6.2409973-7.3487854
				c2.310791-2.3735962,0.6790161-5.0306091-1.902771-6.2911072c-3.8914185-1.8995972-12.4668274-10.5854187-14.9282227-26.2333069
				c-1.0346985,4.3857117-0.6895142,9.832489-0.0804138,13.1025085c-4.1912842-8.5703125-1.8338928-18.7429199-3.1634827-27.9432983
				c-0.7463989-5.1631165-3.3522949-9.0877075-8.5650024-10.4414063c-1.1839905-0.3075867-2.4023132-0.4841003-3.6200867-0.5906067
				c-0.0647278-0.0055847-0.1225281-0.0155945-0.1879272-0.0209961c-0.7080994,0.2261047-1.485199,0.6383972-2.0710754,1.4295044
				c0.3209839,0.5075073,0.7018738,0.8977051,1.1129761,1.199707c0.4239197,0.3114929,0.8804016,0.5289917,1.3401184,0.6759949
				c0.3522949-0.2200012,0.6105957-0.5757141,0.6846008-1.0700989c0.0802917-0.5354004-0.0722961-1.1147156-0.3604126-1.6411133
				c0.061615,0.0227051,0.117218,0.023407,0.1795044,0.052002c0.9988098,0.456604,1.7124023,1.4680176,1.593689,2.2593079
				c-0.0482788,0.3244019-0.2518921,0.5355835-0.5174866,0.6708984c1.1925964,0.0499878,2.1289063-0.2088013,2.1289063-0.2088013
				s-2.6990051,1.5931091-4.4136047,0.7376099c-0.3240051-0.1614075-0.6426086-0.335022-0.9529114-0.5093079
				c-1.0220032-0.5740051-1.8991699-1.1520996-2.2590027-1.3959961c-0.1098938-0.074707-0.1864929-0.1277161-0.1864929-0.1277161
				s0.2805176-0.7182007,0.964325-1.3722839c0.307373-0.2939148,0.6884766-0.5762024,1.1759949-0.7720032
				c0.0178833-0.0069885,0.0361938-0.0101929,0.0541992-0.0169983c-0.0715027-0.0025024-0.1350098-0.0101013-0.2067261-0.012207
				c-0.20047-0.0061951-0.3798828-0.0207825-0.5703735-0.0314941c-6.0612183-0.3318176-7.0056152-2.7957153-7.0056152-2.7957153
				c2.2817993,0.8726196,5.1806946,0.8003235,8.4220886,0.6436157c0.8688965-0.0422974,1.7600098-0.0856934,2.6746216-0.1238098
				c0.4819031-0.019989,0.9655762-0.0395813,1.4581909-0.0514832c4.7745056-0.114502,8.8352051,1.7460938,12.4506836,6.3688965
				c-0.1652832,0.0599976-0.3212891,0.1376953-0.4577942,0.2496948c-1.0472717,0.8595886-0.7562866,2.9462891,0.6507263,4.6604004
				c0.0299988,0.0365906,0.0636902,0.0664063,0.0944824,0.1022949c0.6149902,0.7174988,1.3258972,1.2406921,2.0212097,1.5307922
				c0.7858887,0.3278198,1.5469055,0.3640137,2.1105957,0.0398254c0.1044922,0.1839905,0.2080078,0.3731995,0.3122864,0.5604858
				c1.3312073,2.3959961,2.6462097,5.0653992,4.4869995,8.6835938c2.3634949,4.6455078,4.3175964,9.5385132,7.224823,13.8876953
				c3.1669922,4.7380066,8.2348938,7.8737183,12.6408997,11.4555054c4.2207031,3.4306946,7.8493958,7.0794067,12.5057983,10.0012207
				c6.4702759,4.0595703,14.2353821,3.39328,20.6559753,8.3778992
				C395.6716003,482.4830933,392.1612854,485.4798889,386.3439941,485.1290894z"/>
		</g>
	</g>
	<g>
		<path d="M177.790802,433.0333862l-16.3972015-1.7276917c0.6178894-2.8666992,1.5099945-5.1208801,2.677002-6.7651978
			c1.1654968-1.6439819,2.8453979-3.0697937,5.0370941-4.2788086c1.5735016-0.870575,3.7368011-1.5450745,6.4916992-2.0231934
			c2.7530975-0.4772949,5.732605-0.7163086,8.9358063-0.7163086c5.1427917,0,9.2738953,0.2886047,12.3931885,0.8638
			c3.1189117,0.576416,5.7185059,1.7776184,7.798111,3.6038208c1.4609985,1.2652893,2.6132965,3.0563049,3.4565887,5.375
			c0.8426971,2.3186035,1.2646027,4.5314026,1.2646027,6.6385803v19.7703247c0,2.1070862,0.1333008,3.7579956,0.4004059,4.9518738
			c0.2670898,1.1950073,0.8493958,2.7197266,1.7489929,4.5739136h-16.1017914
			c-0.6472015-1.1525879-1.0688019-2.030304-1.2646027-2.634491c-0.1970062-0.6045227-0.3943024-1.5522156-0.5906067-2.844696
			c-2.2484894,2.1632996-4.4819031,3.7086792-6.7015991,4.6359863c-3.0348969,1.2359924-6.5624847,1.8557129-10.5802917,1.8557129
			c-5.3401031,0-9.3933105-1.2376099-12.1611938-3.7102051c-2.7685089-2.4724121-4.1523132-5.5220032-4.1523132-9.146698
			c0-3.3997192,0.9971008-6.1963196,2.9929047-8.3887024c1.9951019-2.1924133,5.6764984-3.8215027,11.0438995-4.8901062
			c6.4353027-1.292511,10.6082001-2.1978149,12.5195923-2.7182922c1.9105988-0.5193176,3.9340057-1.2019043,6.0700073-2.0439148
			c0-2.1083984-0.4362946-3.5838013-1.3069-4.427002c-0.8715057-0.8422852-2.4024963-1.2639771-4.5948944-1.2639771
			c-2.8103027,0-4.9180145,0.4492798-6.3225098,1.348877C179.3506012,429.7738953,178.4653015,431.0954895,177.790802,433.0333862z
			 M192.6710968,442.0541992c-2.3605957,0.8432007-4.8200073,1.5891113-7.3769073,2.2348022
			c-3.4848938,0.927002-5.6908875,1.8406067-6.6178894,2.7402954c-0.9555969,0.927002-1.4334106,1.9807129-1.4334106,3.160614
			c0,1.348877,0.4701996,2.4519043,1.4126129,3.309082c0.9408875,0.8569031,2.3246918,1.285614,4.151886,1.285614
			c1.910614,0,3.687912-0.4629211,5.3322144-1.3912964c1.6440887-0.9275208,2.8095856-2.0579224,3.4985962-3.3928223
			c0.6882019-1.3339844,1.0328979-3.0700989,1.0328979-5.2060852V442.0541992z"/>
		<path d="M220.3224945,401.5039063h17.1981964v61.7955933h-17.1981964V401.5039063z"/>
		<path d="M269.1773987,401.5039063v17.0300903h9.4421082v12.5614929h-9.4421082v15.8596191
			c0,1.9078979,0.1828003,3.1688843,0.5480957,3.7855835c0.5617065,0.9533997,1.5454102,1.4299011,2.9504089,1.4299011
			c1.2651062,0,3.0351868-0.3639832,5.3114929-1.0935059l1.2647095,11.8435059
			c-4.2437134,0.927002-8.2058105,1.3914185-11.887207,1.3914185c-4.2720032,0-7.4187012-0.5481262-9.4421997-1.6430969
			c-2.0231018-1.0945129-3.5196991-2.7566223-4.4889984-4.9888c-0.969696-2.2307129-1.4545135-5.8447266-1.4545135-10.8405151
			v-15.7441101h-6.3227997v-12.5614929h6.3227997v-8.2204895L269.1773987,401.5039063z"/>
	</g>
	<g>
		<path d="M199.746994,350.8540955h10.5641937v14.2731934c1.0445099-1.1984863,2.2315063-2.0973816,3.5596008-2.696991
			c1.3276062-0.5993958,2.7971039-0.8996887,4.4082184-0.8996887c3.3236847,0,6.0736847,1.3065796,8.2504883,3.9196777
			c2.1750031,2.6133118,3.2635956,6.3637085,3.2635956,11.2531128c0,3.2587891-0.496994,6.130188-1.4904022,8.6120911
			c-0.9942017,2.48172-2.3694,4.3366089-4.1252899,5.5630188c-1.7565002,1.2265015-3.7060089,1.8403015-5.8471069,1.8403015
			c-1.8339996,0-3.5130005-0.4313965-5.0381012-1.2929993c-1.1476898-0.6736145-2.3986969-1.9384155-3.7521973-3.7924194v4.4107971
			h-9.7929993V350.8540955z M210.2341003,377.0403137c0,2.5668945,0.4406891,4.4255981,1.322998,5.5776978
			c0.8822937,1.1520996,2.0007019,1.7277832,3.3549957,1.7277832c1.2501984,0,2.2998047-0.5664063,3.1481018-1.699707
			c0.847702-1.1335754,1.2720032-3.0388794,1.2720032-5.7182922c0-2.3598938-0.4155121-4.0920105-1.2465973-5.197998
			c-0.8313141-1.1044922-1.8376007-1.6569824-3.0200043-1.6569824c-1.4221039,0-2.5827026,0.57547-3.482605,1.7276001
			C210.6835022,372.9526978,210.2341003,374.6993103,210.2341003,377.0403137z"/>
		<path d="M244.3404999,371.8703918l-9.9978027-1.1520996c0.3764954-1.9104004,0.9203949-3.4132996,1.6317902-4.5090027
			c0.7107086-1.0958862,1.7351074-2.046875,3.0713043-2.8517761c0.9595032-0.5808105,2.2788086-1.0305176,3.9588013-1.3494263
			c1.6784058-0.3180847,3.4951019-0.477478,5.4481964-0.477478c3.1360016,0,5.6545105,0.1925964,7.5563965,0.5763855
			c1.9023132,0.3840942,3.4865112,1.1848145,4.7549133,2.4026184c0.8910828,0.8427734,1.593689,2.0365906,2.1080933,3.5820007
			c0.513916,1.5453796,0.7705078,3.0204773,0.7705078,4.425293v13.1771851c0,1.4056091,0.081604,2.5057068,0.2445984,3.3013
			c0.162384,0.7966003,0.5178833,1.8125,1.0661926,3.0487976h-9.8181c-0.3937988-0.7673035-0.6513977-1.3526917-0.7711945-1.7557983
			c-0.1197052-0.4025879-0.2400055-1.0343933-0.3591919-1.896698c-1.3716125,1.4428101-2.7339172,2.4724121-4.0871124,3.0905151
			c-1.8504028,0.8240051-4.0009918,1.2366028-6.4512024,1.2366028c-3.2557983,0-5.7274933-0.8245239-7.4149933-2.473114
			c-1.6882019-1.6477051-2.5315094-3.6802063-2.5315094-6.0969849c0-2.2661133,0.6074066-4.130127,1.8245087-5.5913086
			c1.2164917-1.4606934,3.4606018-2.5466003,6.7341003-3.2585144c3.9237976-0.8616028,6.4684906-1.466095,7.6334991-1.8125
			c1.1652985-0.3468933,2.3988953-0.8007813,3.7008972-1.3624878c0-1.4056091-0.2653046-2.3890076-0.796402-2.9507141
			c-0.5316925-0.5615845-1.4653015-0.8427734-2.8011932-0.8427734c-1.7144012,0-2.9990082,0.2999878-3.8554993,0.8988953
			C245.2911987,369.6983032,244.7515869,370.5783997,244.3404999,371.8703918z M253.4131927,377.8839111
			c-1.4391937,0.5609741-2.9381866,1.058075-4.4972992,1.488678c-2.1255035,0.6177063-3.4701996,1.2266235-4.0358887,1.8262024
			c-0.5820007,0.6184082-0.8735046,1.3208008-0.8735046,2.1074219c0,0.8988953,0.2870941,1.6347961,0.8612976,2.2052917
			c0.5735016,0.5712891,1.4174957,0.8572083,2.5314941,0.8572083c1.1652985,0,2.2490082-0.3088074,3.2510071-0.927002
			c1.0027008-0.6184082,1.7133942-1.3721008,2.1329956-2.2617188c0.4201965-0.889679,0.6298981-2.0469055,0.6298981-3.4704895
			V377.8839111z"/>
		<path d="M268.0637817,383.7557068l10.383606-1.0679016c0.428009,1.3490906,1.0281067,2.3136902,1.7994995,2.8945007
			c0.7705078,0.58078,1.7986145,0.8706055,3.0840149,0.8706055c1.4047852,0,2.4926758-0.3265991,3.2638855-0.98172
			c0.5996094-0.4859924,0.8997192-1.093689,0.8997192-1.8238831c0-0.8222961-0.394104-1.4588013-1.1824036-1.9075012
			c-0.5649109-0.3181152-2.0649109-0.7104187-4.4974976-1.178009c-3.6331177-0.6925964-6.1560059-1.3331909-7.5696106-1.9226074
			c-1.4132996-0.5895996-2.6043091-1.5858765-3.5722961-2.9896851c-0.9682007-1.4026184-1.4523926-3.003418-1.4523926-4.7998047
			c0-1.9645996,0.5222778-3.6577148,1.567688-5.0805969c1.0454102-1.4219055,2.4845886-2.4839172,4.3178101-3.1853027
			c1.8339844-0.7015991,4.2924805-1.0531921,7.3766785-1.0531921c3.2554016,0,5.6585083,0.2721863,7.2095032,0.8153992
			c1.550293,0.5431824,2.8440247,1.3858032,3.8813171,2.528595c1.0361938,1.1427917,1.8974915,2.6879883,2.5829773,4.6359863
			l-9.9212952,1.0678101c-0.256897-0.9552917-0.6855774-1.6578979-1.2848816-2.1073914
			c-0.8226013-0.5993042-1.8167114-0.8988953-2.9812012-0.8988953c-1.1824036,0-2.0437012,0.2287903-2.5834961,0.6875
			c-0.5396118,0.4579773-0.8094177,1.0143738-0.8094177,1.6687012c0,0.7294922,0.342804,1.281189,1.0281067,1.6549988
			c0.6853027,0.3744812,2.1758118,0.7106934,4.4721985,1.0099792c3.4779968,0.4309082,6.0658875,1.0296021,7.762207,1.7971191
			c1.6959839,0.7668762,2.9938965,1.8616028,3.8934937,3.2834778c0.8996887,1.4226074,1.349884,2.9851074,1.349884,4.6872253
			c0,1.7219849-0.4755859,3.3972778-1.4269714,5.0246887c-0.9508972,1.6276855-2.4502258,2.9242859-4.4976196,3.887207
			c-2.0482788,0.9638977-4.8366089,1.4458008-8.3659058,1.4458008c-4.9866028,0-8.537384-0.7769165-10.653595-2.3325195
			C270.0209045,388.831604,268.6634827,386.6221008,268.0637817,383.7557068z"/>
		<path d="M332.370697,379.9621887h-20.9732056c0.1882935,1.8359985,0.6429138,3.203125,1.3620911,4.1028137
			c1.0115051,1.2922058,2.3303223,1.9385071,3.9584961,1.9385071c1.0281067,0,2.005127-0.281311,2.9299316-0.8433228
			c0.5656738-0.3556824,1.173584-0.9830933,1.82547-1.8822937l10.3063049,1.0395203
			c-1.5770874,2.9971008-3.4786987,5.1469727-5.70578,6.4484863c-2.2279968,1.3015137-5.4233093,1.9529114-9.5874023,1.9529114
			c-3.6152039,0-6.4598999-0.5576172-8.5334167-1.6724243c-2.0731812-1.113678-3.7902832-2.8841858-5.1531067-5.3097839
			c-1.3619995-2.4255066-2.0431824-5.2773132-2.0431824-8.5553894c0-4.6643066,1.3664856-8.4389038,4.0990906-11.3232117
			c2.7329102-2.8843079,6.506897-4.3273926,11.3225098-4.3273926c3.9064941,0,6.9906921,0.646698,9.2526855,1.9394836
			c2.2617188,1.2919006,3.9836121,3.1654968,5.1663208,5.6191101c1.1822815,2.4535828,1.7731934,5.6473999,1.7731934,9.5808105
			V379.9621887z M321.730011,374.48349c-0.2055054-2.2095032-0.7495117-3.7924805-1.6318054-4.7485962
			c-0.8830261-0.9549866-2.0439148-1.4325867-3.4831238-1.4325867c-1.662384,0-2.9904785,0.7211914-3.9838867,2.1636047
			c-0.6343079,0.8986816-1.0365906,2.2388-1.2077942,4.0175781H321.730011z"/>
	</g>
</g>
</svg>
