<?xml version="1.0" encoding="UTF-8" standalone="no"?>
<svg
   viewBox="0 0 493.99814 198.41063"
   height="211.638"
   width="526.93134"
   version="1.1"
   id="svg2985"
   sodipodi:docname="embecosm-logo-plain.svg"
   inkscape:version="1.2.2 (b0a8486541, 2022-12-01)"
   xmlns:inkscape="http://www.inkscape.org/namespaces/inkscape"
   xmlns:sodipodi="http://sodipodi.sourceforge.net/DTD/sodipodi-0.dtd"
   xmlns:xlink="http://www.w3.org/1999/xlink"
   xmlns="http://www.w3.org/2000/svg"
   xmlns:svg="http://www.w3.org/2000/svg"
   xmlns:rdf="http://www.w3.org/1999/02/22-rdf-syntax-ns#"
   xmlns:cc="http://creativecommons.org/ns#"
   xmlns:dc="http://purl.org/dc/elements/1.1/">
  <sodipodi:namedview
     id="namedview22"
     pagecolor="#ffffff"
     bordercolor="#000000"
     borderopacity="0.25"
     inkscape:showpageshadow="2"
     inkscape:pageopacity="0.0"
     inkscape:pagecheckerboard="0"
     inkscape:deskcolor="#d1d1d1"
     showgrid="false"
     inkscape:zoom="3.2091468"
     inkscape:cx="252.55934"
     inkscape:cy="105.94716"
     inkscape:window-width="3840"
     inkscape:window-height="2076"
     inkscape:window-x="2560"
     inkscape:window-y="0"
     inkscape:window-maximized="1"
     inkscape:current-layer="svg2985" />
  <title
     id="title2831">Embecosm Logo</title>
  <defs
     id="defs2989" />
  <g
     transform="translate(-0.00185968,-0.29560251)"
     style="display:inline"
     id="layer2" />
  <g
     transform="translate(-0.00185968,-0.29560251)"
     style="display:inline"
     id="layer3">
    <flowRoot
       transform="translate(-101.01041,-3.5355338)"
       style="font-style:normal;font-weight:normal;line-height:0.01%;font-family:sans-serif;letter-spacing:0px;word-spacing:0px;fill:#000000;fill-opacity:1;stroke:#000000;stroke-width:4.80000019;stroke-miterlimit:4;stroke-dasharray:none;stroke-opacity:1"
       id="flowRoot3809"
       xml:space="preserve"><flowRegion
         style="font-family:sans-serif"
         id="flowRegion3811"><rect
           style="font-size:72px;font-family:sans-serif;stroke:#000000;stroke-width:4.80000019;stroke-miterlimit:4;stroke-dasharray:none;stroke-opacity:1"
           y="71.013672"
           x="10.253048"
           height="130.81476"
           width="650.89178"
           id="rect3813" /></flowRegion><flowPara
         style="font-style:normal;font-variant:normal;font-weight:bold;font-stretch:normal;font-size:72px;line-height:1.25;font-family:sans-serif;-inkscape-font-specification:'Sans Bold';text-align:center;letter-spacing:4.34999943px;text-anchor:middle;stroke:#000000;stroke-width:4.80000019;stroke-miterlimit:4;stroke-dasharray:none;stroke-opacity:1"
         id="flowPara3815"> </flowPara></flowRoot>
    <flowRoot
       style="font-style:normal;font-variant:normal;font-weight:bold;font-stretch:normal;line-height:0.01%;font-family:Arial;-inkscape-font-specification:'Arial Bold';letter-spacing:0px;word-spacing:0px;fill:#000000;fill-opacity:1;stroke:none"
       id="flowRoot3806"
       xml:space="preserve"><flowRegion
         id="flowRegion3808"><rect
           style="font-style:normal;font-variant:normal;font-weight:bold;font-stretch:normal;font-size:65.00091553%;font-family:Arial;-inkscape-font-specification:'Arial Bold'"
           y="10.5"
           x="273"
           height="69"
           width="109.5"
           id="rect3810" /></flowRegion><flowPara
         style="font-size:0.65000898px;line-height:1.25"
         id="flowPara3812"> </flowPara></flowRoot>
    <path
       id="path3031"
       d="m 180.70206,99.50092 c 0,54.78958 -44.41573,99.20531 -99.20531,99.20531 -33.756735,0 -63.575568,-16.86015 -81.49489032,-42.61887 0,-5.86263 3.0347e-4,-111.193904 3.0347e-4,-113.173321 C 17.921519,17.155573 47.740206,0.29560251 81.49675,0.29560251 c 54.78958,0 99.20531,44.41573249 99.20531,99.20531749 z"
       style="display:inline;fill:#25227e;fill-opacity:1;fill-rule:evenodd;stroke:none" />
    <path
       d="M 145.5,116.125 V 105.75 c 0,0 5.75,0 9,0 3.25,0 6.1875,2.125 6.1875,5 0,2.875 -1.5,5.4375 -6.25,5.4375 -4.75,0 -8.9375,-0.0625 -8.9375,-0.0625 z M 129.375,75.75 v 51.375 c 0,0 19.25,-0.375 29.5,-0.375 10.25,0 17.75,-2.625 17.75,-14.125 0,-11.5 -10.375,-12.875 -10.375,-12.875 0,0 8.625,-3.625 8.625,-11.125 0,-7.5 -6.25,-12.75 -15.375,-12.75 -9.125,0 -30.125,-0.125 -30.125,-0.125 z m 16.0625,10.84375 h 8.5 c 2.78125,0 4.84375,1.28125 4.84375,4.65625 0,3.375 -1.5625,4.90625 -4.8125,4.90625 H 145.4375 Z M 61,127 V 75.875 h 20.625 l 8.25,30.125 8.5,-30 h 20.375 v 51 H 105.875 V 86.875 l -10,40.25 H 84 L 73.875,87.25 v 39.875 z M 9.5,127 V 75.875 h 41.875 v 10.75 h -26.25 v 8.25 h 24.25 v 10.75 H 25.25 v 9.875 h 27 v 11.75 z"
       style="fill:#ffffff;fill-opacity:1;stroke:none"
       id="path3833" />
    <path
       d="M 402.875,127.125 V 75.5 h 20.75 l 8.125,32.375 8.625,-32.375 h 20.25 v 51.625 h -12.5 v -40.5 L 437.5,127 h -11.375 l -10.25,-40.875 v 41 z m -38.6875,-17.4375 c 0.91693,10.59571 16.44262,10.11427 16.5625,3.5 0.0817,-4.50628 -5.0625,-5.375 -13.1875,-7.75 -7.13146,-2.08458 -16,-5.625 -16,-14.5 0,-10.4375 9.0625,-16.125 21.3125,-16.125 12.25,0 20.125,4.75 21.25,15.3125 h -14.8125 c -1.8689,-7.639593 -13.27634,-7.012227 -13.0625,-1.875 0.1406,3.377675 4.625,4.125 14.5625,6.6875 C 390.75,97.5 396,101.8125 396,110.625 c 0,8.8125 -6.9375,17.625 -22.375,17.625 -15.4375,0 -23.75,-6.25 -23.75,-17.9375 z M 316.875,74.75 c -11.375,0 -26.375,5.1875 -26.375,26.8125 0,22.03684 16.25,26.4375 27.125,26.4375 10.875,0 25.75,-4.375 25.75,-26.125 0,-21.75 -15.125,-27.125 -26.5,-27.125 z m 0.0625,11.8125 c 4.4375,0 10.625,2.375 10.625,14.5625 0,12.75 -5.5625,14.9375 -10.4375,14.9375 -4.625,0 -11.1875,-1.89747 -11.1875,-13.9375 0,-13.3125 6.625,-15.5625 11,-15.5625 z M 270,93.6875 c 0,0 -1.3125,-7.1875 -9.0625,-7.1875 -7.75,0 -10.5625,6.25 -10.5625,15.125 0,8.875 1.875,14.625 9.625,14.625 7.75,0 10.5625,-9.6875 10.5625,-9.6875 l 13.75,4 c 0,0 -2.0625,17.5625 -23.25,17.5625 -21.1875,0 -26.625,-14.375 -26.625,-25.8125 0,-11.4375 5.125,-27.5625 25.875,-27.5625 20.75,0 23.125,16.0625 23.125,16.0625 z M 184.5625,127.125 V 75.8125 H 226.25 V 86.5 h -26 v 8.25 h 23.9375 v 10.875 H 200.375 v 10.0625 h 26.9375 v 11.4375 z"
       style="fill:#25227e;fill-opacity:1;stroke:none"
       id="path3802" />
    <path
       d="m 479.52734,52.495193 c -1.57554,2.6e-5 -3.04038,0.286484 -4.39453,0.859375 -1.35418,0.55992 -2.59767,1.406273 -3.73047,2.539062 -1.13282,1.132834 -1.98569,2.376322 -2.55859,3.730469 -0.55991,1.341163 -0.83986,2.806006 -0.83985,4.394531 -10e-6,1.575534 0.27994,3.040376 0.83985,4.394531 0.5729,1.341155 1.42577,2.578133 2.55859,3.710938 1.11978,1.119797 2.35676,1.95964 3.71094,2.519531 1.36717,0.559899 2.83852,0.839847 4.41406,0.839844 1.60154,3e-6 3.07289,-0.273434 4.41406,-0.820313 1.34112,-0.559891 2.5781,-1.406244 3.71094,-2.539062 1.13278,-1.132805 1.97914,-2.369783 2.53906,-3.710938 0.57289,-1.354155 0.85935,-2.818997 0.85938,-4.394531 -3e-5,-1.588525 -0.28649,-3.053368 -0.85938,-4.394531 -0.55992,-1.354147 -1.40628,-2.597635 -2.53906,-3.730469 -1.14586,-1.145809 -2.39586,-1.998673 -3.75,-2.558594 -1.34117,-0.55987 -2.7995,-0.839817 -4.375,-0.839843 m -1.11328,5.761718 h -0.6836 v 4.042969 h 0.6836 c 1.0156,1.6e-5 1.77732,-0.169254 2.28515,-0.507812 0.52082,-0.351546 0.78123,-0.865868 0.78125,-1.542969 -2e-5,-0.677064 -0.25392,-1.178366 -0.76171,-1.503906 -0.49482,-0.325501 -1.26304,-0.488261 -2.30469,-0.488282 m 0.72265,-2.695312 c 2.29165,2.3e-5 4.00389,0.390647 5.13672,1.171875 1.13279,0.76825 1.6992,1.940124 1.69922,3.515625 -2e-5,1.119809 -0.34508,2.044287 -1.03515,2.773437 -0.67711,0.729182 -1.64065,1.204442 -2.89063,1.425782 0.53383,0.286472 1.02862,0.690117 1.48438,1.210937 0.46872,0.520846 0.8919,1.158866 1.26953,1.914063 l 2.16797,4.316406 h -4.47266 l -2.08984,-4.160156 c -0.49482,-1.015614 -0.93101,-1.731759 -1.3086,-2.148438 -0.37762,-0.429674 -0.75522,-0.644518 -1.13281,-0.644531 h -0.23438 v 6.953125 h -4.16015 V 55.561599 h 5.5664 m 0.39063,-6.074219 c 1.97914,2.9e-5 3.82159,0.358102 5.52734,1.074219 1.71873,0.716173 3.28774,1.78388 4.70703,3.203125 1.41924,1.419294 2.48044,2.981793 3.1836,4.6875 0.70309,1.705747 1.05465,3.561214 1.05469,5.566406 -4e-5,1.979179 -0.3516,3.821625 -1.05469,5.527344 -0.70316,1.692716 -1.76436,3.248704 -3.1836,4.667969 -1.41929,1.419273 -2.9883,2.486981 -4.70703,3.203125 -1.70575,0.716146 -3.5482,1.074218 -5.52734,1.074218 -1.97918,0 -3.82814,-0.358072 -5.54688,-1.074218 -1.70574,-0.716144 -3.26824,-1.783852 -4.6875,-3.203125 -1.41927,-1.419265 -2.48047,-2.975253 -3.18359,-4.667969 -0.70313,-1.705719 -1.05469,-3.548165 -1.05469,-5.527344 0,-2.005192 0.35156,-3.860659 1.05469,-5.566406 0.70312,-1.705707 1.76432,-3.268206 3.18359,-4.6875 1.41926,-1.419245 2.98176,-2.486952 4.6875,-3.203125 1.71874,-0.716117 3.5677,-1.07419 5.54688,-1.074219"
       style="font-style:normal;font-variant:normal;font-weight:bold;font-stretch:normal;font-size:40px;line-height:125%;font-family:Sans;-inkscape-font-specification:'Sans Bold';text-align:start;letter-spacing:0px;word-spacing:0px;writing-mode:lr-tb;text-anchor:start;fill:#25227e;fill-opacity:1;stroke:none"
       id="path3605" />
  </g>
</svg>
